<?xml version="1.0" encoding="UTF-8" standalone="no"?>
<!-- Created with Inkscape (http://www.inkscape.org/) -->

<svg
   xmlns:dc="http://purl.org/dc/elements/1.1/"
   xmlns:cc="http://creativecommons.org/ns#"
   xmlns:rdf="http://www.w3.org/1999/02/22-rdf-syntax-ns#"
   xmlns:svg="http://www.w3.org/2000/svg"
   xmlns="http://www.w3.org/2000/svg"
   xmlns:sodipodi="http://sodipodi.sourceforge.net/DTD/sodipodi-0.dtd"
   xmlns:inkscape="http://www.inkscape.org/namespaces/inkscape"
   width="60"
   height="60"
   id="svg3814"
   version="1.1"
   inkscape:version="0.48.1 r9760"
   sodipodi:docname="baby.svg"
   inkscape:export-filename="/var/www/ctksound.dev/public/images/infant_baptism.png"
   inkscape:export-xdpi="72"
   inkscape:export-ydpi="72">
  <defs
     id="defs3816" />
  <sodipodi:namedview
     id="base"
     pagecolor="#ffffff"
     bordercolor="#666666"
     borderopacity="1.0"
     inkscape:pageopacity="0.0"
     inkscape:pageshadow="2"
     inkscape:zoom="8.3833333"
     inkscape:cx="30"
     inkscape:cy="30"
     inkscape:document-units="px"
     inkscape:current-layer="layer1"
     showgrid="false"
     units="pt"
     inkscape:window-width="1366"
     inkscape:window-height="688"
     inkscape:window-x="0"
     inkscape:window-y="24"
     inkscape:window-maximized="1" />
  <metadata
     id="metadata3819">
    <rdf:RDF>
      <cc:Work
         rdf:about="">
        <dc:format>image/svg+xml</dc:format>
        <dc:type
           rdf:resource="http://purl.org/dc/dcmitype/StillImage" />
        <dc:title></dc:title>
      </cc:Work>
    </rdf:RDF>
  </metadata>
  <g
     inkscape:label="Layer 1"
     inkscape:groupmode="layer"
     id="layer1"
     transform="translate(0,-992.36218)">
    <path
       style="fill:none;stroke:#000000;stroke-width:1px;stroke-linecap:butt;stroke-linejoin:miter;stroke-opacity:1"
       d="m 19.801193,1008.4656 c 1.329964,-0.2496 2.278895,-1.4244 3.640355,-1.6074 1.554268,-0.4121 3.198237,-0.8886 4.797371,-0.4162 1.662672,0.2455 3.26816,0.9059 4.532245,2.0297 1.217541,0.911 2.376424,2.1014 2.628821,3.6622 0.462296,1.191 0.901968,2.2364 0.503167,3.5951 -0.65442,0.8353 -0.02121,2.2434 -1.030271,2.801 -1.210289,0.7495 -2.251631,1.7275 -3.369659,2.5962 -0.991511,0.7174 -2.243969,1.2915 -3.485773,0.944 -1.241219,-0.1468 -2.522344,-0.2152 -3.683448,-0.7219 -0.782277,-1.155 -2.404556,-1.2147 -3.22276,-2.3229 -0.989615,-1.0507 -2.194901,-2.0616 -2.52678,-3.5318 -0.341712,-1.0573 -0.03725,-1.2497 -0.124187,-2.3686 0.141077,-1.2569 0.713177,-2.6898 0.984099,-3.8982 0.316038,-0.1394 0.28132,-0.7594 0.436185,-0.3861 0.244962,-0.2486 0.347934,-0.671 0.636344,-0.8523"
       id="path4014"
       inkscape:connector-curvature="0"
       sodipodi:nodetypes="cccccccccccccccc" />
    <path
       style="fill:none;stroke:#000000;stroke-width:1px;stroke-linecap:butt;stroke-linejoin:miter;stroke-opacity:1"
       d="m 27.554672,1029.9367 c 0.0086,-0.7211 0.08363,-0.3778 -0.119283,-1.0738"
       id="path4578" />
    <path
       style="fill:none;stroke:#000000;stroke-width:1px;stroke-linecap:butt;stroke-linejoin:miter;stroke-opacity:1"
       d="m 22.425449,1030.175 c 4.052853,0.1657 8.111907,0.2701 12.166998,0.1194"
       id="path4576" />
    <path
       style="fill:none;stroke:#000000;stroke-width:1px;stroke-linecap:butt;stroke-linejoin:miter;stroke-opacity:1"
       d="m 24.214714,1022.7795 c -3.495356,1.6768 -6.857281,3.6475 -10.497018,5.0099"
       id="path4574" />
    <path
       style="fill:none;stroke:#000000;stroke-width:1px;stroke-linecap:butt;stroke-linejoin:miter;stroke-opacity:1"
       d="m 32.087477,1023.018 c 3.607714,1.3222 5.655228,5.0783 9.304175,6.3221"
       id="path4572" />
    <path
       style="fill:none;stroke:#000000;stroke-width:0.81428427px;stroke-linecap:butt;stroke-linejoin:miter;stroke-opacity:1"
       d="m 33.39563,1036.2727 c 1.891724,2.6319 5.435087,5.5178 6.884731,8.5373 1.041002,0.9041 2.569849,0.6136 3.513399,-0.3319"
       id="path4570"
       inkscape:connector-curvature="0" />
    <path
       style="fill:none;stroke:#000000;stroke-width:1px;stroke-linecap:butt;stroke-linejoin:miter;stroke-opacity:1"
       d="m 20.755469,1035.7815 c 4.162548,-0.2683 12.772861,0.5645 12.772861,0.5645 0,0 1.292176,-4.2722 0.287238,-6.5298 -1.146836,-2.3858 -0.231668,-5.91 -2.920934,-7.3946"
       id="path4568" />
    <path
       style="fill:none;stroke:#000000;stroke-width:1px;stroke-linecap:butt;stroke-linejoin:miter;stroke-opacity:1"
       d="m 24.811135,1021.4673 c -2.021385,4.3773 -3.806434,8.9158 -4.603372,13.6889 -0.468855,3.3986 -3.760863,4.4709 -6.065971,6.3179 -1.160905,1.0338 -3.03832,2.2893 -4.4797622,0.9873"
       id="path4028" />
    <path
       style="fill:none;stroke:#000000;stroke-width:1px;stroke-linecap:butt;stroke-linejoin:miter;stroke-opacity:1"
       d="m 22.544732,1014.6683 c 0.276988,0.4025 -0.06158,1.0112 0.348764,1.3342 0.322461,0.3798 0.450744,0.9473 0.946265,1.1574 0.402969,0.2389 0.748048,0.5751 1.195207,0.7409 0.396153,0.1453 0.783872,0.2936 1.17593,0.4424 0.490809,0.076 0.973389,0.1978 1.464869,0.2668 0.714492,0.069 1.44033,-0.082 2.071751,-0.4217 0.496918,-0.1915 1.063036,-0.3776 1.291388,-0.9129 0.0547,-0.5779 0.545698,-0.8459 0.957361,-1.1654 l 0.04903,-0.062 0.04218,-0.068"
       id="path4030"
       inkscape:connector-curvature="0" />
    <path
       sodipodi:type="arc"
       style="fill:#000000;stroke:#000000;stroke-width:2;stroke-linecap:round;stroke-linejoin:round;stroke-miterlimit:4;stroke-opacity:1;stroke-dasharray:none;stroke-dashoffset:0;fill-opacity:1"
       id="path4032"
       sodipodi:cx="24.333996"
       sodipodi:cy="18.369781"
       sodipodi:rx="0.11928429"
       sodipodi:ry="0.23856859"
       d="m 24.327878,18.131527 a 0.11928429,0.23856859 0 1 1 -0.0011,1.21e-4"
       transform="translate(0,992.36218)"
       sodipodi:start="4.6610829"
       sodipodi:end="10.935153"
       sodipodi:open="true" />
    <path
       sodipodi:open="true"
       sodipodi:end="10.935153"
       sodipodi:start="4.6610829"
       transform="translate(5.4035785,992.72002)"
       d="m 24.327878,18.131527 a 0.11928429,0.23856859 0 1 1 -0.0011,1.21e-4"
       sodipodi:ry="0.23856859"
       sodipodi:rx="0.11928429"
       sodipodi:cy="18.369781"
       sodipodi:cx="24.333996"
       id="path4542"
       style="fill:#000000;fill-opacity:1;stroke:#000000;stroke-width:2;stroke-linecap:round;stroke-linejoin:round;stroke-miterlimit:4;stroke-opacity:1;stroke-dasharray:none;stroke-dashoffset:0"
       sodipodi:type="arc" />
    <path
       sodipodi:type="arc"
       style="fill:#000000;fill-opacity:1;stroke:#000000;stroke-width:2;stroke-linecap:round;stroke-linejoin:round;stroke-miterlimit:4;stroke-opacity:1;stroke-dasharray:none;stroke-dashoffset:0"
       id="path4544"
       sodipodi:cx="24.333996"
       sodipodi:cy="18.369781"
       sodipodi:rx="0.11928429"
       sodipodi:ry="0.23856859"
       d="m 24.327878,18.131527 a 0.11928429,0.23856859 0 1 1 -0.0011,1.21e-4"
       transform="translate(2.5407553,995.88506)"
       sodipodi:start="4.6610829"
       sodipodi:end="10.935153"
       sodipodi:open="true" />
    <path
       style="fill:none;stroke:#000000;stroke-width:0.5;stroke-linecap:butt;stroke-linejoin:miter;stroke-opacity:1;stroke-miterlimit:4;stroke-dasharray:none"
       d="m 30.536779,14.194831 c 0.07952,-0.159046 0.209336,-0.301738 0.238569,-0.477137 0.01462,-0.0877 -0.09117,-0.154222 -0.119284,-0.238569 -0.01257,-0.03772 0,-0.07952 0,-0.119284 0,-0.03976 -0.01257,-0.08156 0,-0.119284 0.02811,-0.08435 0.09772,-0.152314 0.119284,-0.238569 0.01929,-0.07715 -0.03556,-0.167441 0,-0.238569 0.01778,-0.03556 0.101502,0.03556 0.119284,0 0.03556,-0.07113 -0.02515,-0.163126 0,-0.238568 0.02812,-0.08435 0.238569,-0.208194 0.238569,-0.119284 0,0.03976 -0.119284,0.03976 -0.119284,0 0,-0.05623 0.07952,-0.07952 0.119284,-0.119285"
       id="path4580"
       inkscape:connector-curvature="0"
       transform="translate(0,992.36218)" />
    <path
       style="fill:none;stroke:#000000;stroke-width:0.5;stroke-linecap:butt;stroke-linejoin:miter;stroke-opacity:1;stroke-miterlimit:4;stroke-dasharray:none"
       d="m 25.28827,13.59841 c -0.119284,-0.159046 -0.255567,-0.306662 -0.357853,-0.477138 -0.02046,-0.03409 0.01566,-0.08274 0,-0.119284 -0.578795,-1.350522 -0.155693,-0.05733 -0.715705,-1.550696 -0.01396,-0.03723 0.02811,-0.09117 0,-0.119284 -0.02812,-0.02812 -0.09117,0.02812 -0.119285,0 -0.02811,-0.02812 0.02812,-0.09117 0,-0.119284 -0.163522,-0.163523 -0.393476,-0.119285 -0.596421,-0.119285"
       id="path4582"
       inkscape:connector-curvature="0"
       transform="translate(0,992.36218)" />
    <path
       style="fill:none;stroke:#000000;stroke-width:0.5;stroke-linecap:butt;stroke-linejoin:miter;stroke-opacity:1;stroke-miterlimit:4;stroke-dasharray:none"
       d="m 27.554672,13.359841 c -0.119284,-0.238569 -0.264199,-0.465961 -0.357853,-0.715706 -0.02792,-0.07446 0,-0.159046 0,-0.238568 0,-0.27833 0,-0.55666 0,-0.83499"
       id="path4584"
       inkscape:connector-curvature="0"
       transform="translate(0,992.36218)" />
  </g>
</svg>
