<?xml version="1.0" encoding="UTF-8" standalone="no"?>
<!-- Created with Inkscape (http://www.inkscape.org/) -->

<svg
   xmlns:dc="http://purl.org/dc/elements/1.1/"
   xmlns:cc="http://creativecommons.org/ns#"
   xmlns:rdf="http://www.w3.org/1999/02/22-rdf-syntax-ns#"
   xmlns:svg="http://www.w3.org/2000/svg"
   xmlns="http://www.w3.org/2000/svg"
   xmlns:sodipodi="http://sodipodi.sourceforge.net/DTD/sodipodi-0.dtd"
   xmlns:inkscape="http://www.inkscape.org/namespaces/inkscape"
   width="48"
   height="48"
   id="svg2"
   version="1.1"
   inkscape:version="0.48.1 r9760"
   sodipodi:docname="portrait.svg"
   inkscape:export-filename="/var/www/ctksound.dev/public/images/portrait.png"
   inkscape:export-xdpi="90"
   inkscape:export-ydpi="90">
  <defs
     id="defs4" />
  <sodipodi:namedview
     id="base"
     pagecolor="#ffffff"
     bordercolor="#666666"
     borderopacity="1.0"
     inkscape:pageopacity="0.0"
     inkscape:pageshadow="2"
     inkscape:zoom="10.479167"
     inkscape:cx="24"
     inkscape:cy="24"
     inkscape:document-units="px"
     inkscape:current-layer="layer1"
     showgrid="false"
     inkscape:window-width="1366"
     inkscape:window-height="688"
     inkscape:window-x="0"
     inkscape:window-y="24"
     inkscape:window-maximized="1" />
  <metadata
     id="metadata7">
    <rdf:RDF>
      <cc:Work
         rdf:about="">
        <dc:format>image/svg+xml</dc:format>
        <dc:type
           rdf:resource="http://purl.org/dc/dcmitype/StillImage" />
      </cc:Work>
    </rdf:RDF>
  </metadata>
  <g
     inkscape:label="Layer 1"
     inkscape:groupmode="layer"
     id="layer1"
     transform="translate(0,-1004.3622)">
    <path
       transform="translate(0,1004.3622)"
       style="fill:none;stroke:#000000;stroke-width:2;stroke-linecap:round;stroke-linejoin:round;stroke-miterlimit:4;stroke-opacity:1;stroke-dashoffset:0"
       d="m 4.5805168,3.4353876 9.7813122,0 9.781312,-0.4771372 9.781312,0.4771372 9.781312,0 -0.477137,10.7117294 0.954274,9.471173 -0.477137,10.234592 0,10.139165 -9.49503,-0.38171 -10.067594,0.38171 -9.49503,-0.667992 -10.0675942,0.667992 0,-10.139165 L 4.1033796,24 4.5805168,13.574552 z"
       id="rect3795"
       inkscape:connector-curvature="0"
       sodipodi:nodetypes="ccccccccccccccccc" />
    <path
       style="fill:none;stroke:#000000;stroke-width:2;stroke-linecap:round;stroke-linejoin:round;stroke-miterlimit:4;stroke-opacity:1;stroke-dashoffset:0"
       d="m 24.809901,1016.0093 c 1.802706,-0.094 3.376846,0.3715 4.618878,1.5086 1.242032,1.137 1.770248,3.0411 1.862819,4.8702 0.09257,1.829 -0.840595,3.3321 -1.961298,4.5923 -1.120703,1.2602 -2.047234,2.182 -3.84994,2.2759 -1.802707,0.094 -3.090563,-1.2304 -4.332596,-2.3675 -1.242032,-1.1371 -1.961104,-2.564 -2.053675,-4.393 -0.09198,-1.8172 0.06916,-3.0252 1.177972,-4.2835 1.108811,-1.2583 2.688163,-2.0897 4.478349,-2.1996"
       id="path3800"
       inkscape:connector-curvature="0"
       sodipodi:nodetypes="csssssssc" />
    <path
       id="path3810"
       transform="translate(0,1004.3622)"
       style="fill:none;stroke:#000000;stroke-width:2;stroke-linecap:butt;stroke-linejoin:miter;stroke-opacity:1;stroke-miterlimit:4;stroke-dasharray:none"
       d="m 25.956262,33.590457 c 0.159046,-0.159045 0.318092,-0.318091 0.477138,-0.477137 0.03181,0 0.06698,0.01423 0.09543,0 0.04024,-0.02012 0.06362,-0.06362 0.09543,-0.09543 0.09543,-0.09543 0.176466,-0.207842 0.286283,-0.286283 0.115757,-0.08268 0.246755,-0.14587 0.38171,-0.190855 0.0513,-0.0171 0.300916,0 0.381709,0 0.09543,0 0.195752,-0.03018 0.286283,0 0.03018,0.01006 -0.02249,0.07294 0,0.09543 0.24104,0.24104 0.110007,0.03667 0.286282,0.09543 0.06748,0.02249 0.127236,0.06362 0.190855,0.09543 0.06362,0.03181 0.14056,0.04513 0.190855,0.09543 0.0811,0.0811 0.124193,0.192956 0.190854,0.286283 0.09244,0.12942 0.17382,0.269247 0.286283,0.381709 0.112462,0.112463 0.249375,0.19806 0.38171,0.286283 0.05918,0.03945 0.14056,0.04513 0.190854,0.09543 0.02249,0.02249 -0.01908,0.06998 0,0.09543 0.08097,0.107964 0.190855,0.190855 0.286283,0.286283 0.127236,0.127236 0.254473,0.254473 0.381709,0.381709 0.06362,0.06362 0.115996,0.140949 0.190855,0.190855 0.02647,0.01765 0.06362,0 0.09543,0 0.06362,0.06362 0.136873,0.118879 0.190855,0.190855 0.09353,0.124703 0.505072,0.791355 0.667992,0.954275 0.0811,0.0811 0.198175,0.117432 0.286282,0.190854 0.103675,0.0864 0.190855,0.190855 0.286282,0.286283 0.09543,0.09543 0.208891,0.175723 0.286283,0.286282 0.147066,0.210095 0.257164,0.443811 0.381709,0.667992 0.03454,0.06218 0.05099,0.135314 0.09543,0.190855 0.08431,0.105382 0.190855,0.190855 0.286282,0.286282 0.06362,0.06362 0.147162,0.112207 0.190855,0.190855 0.196401,0.353522 0.422165,1.074213 0.572565,1.431412 0.159045,0.3499 0.318091,0.699801 0.477137,1.049701 0,0.03181 -0.01006,0.06525 0,0.09543 0.02249,0.06748 0.08899,0.120019 0.09543,0.190855 0.100572,1.106292 0.02336,0.527836 -0.09543,1.240556 -5.92e-4,0.0036 3.77e-4,0.285906 0,0.286283 -0.127237,0.127236 -0.09543,-0.159046 -0.09543,0.09543 m -9.256469,-8.49306 c -0.222664,-0.06362 -0.445328,-0.127236 -0.667992,-0.190854 -0.06362,-0.03181 -0.123377,-0.07294 -0.190855,-0.09543 -0.03018,-0.01006 -0.06405,0.0052 -0.09543,0 -0.159989,-0.02667 -0.318092,-0.06362 -0.477137,-0.09543 -0.318092,-0.06362 -0.63544,-0.131074 -0.954275,-0.190855 -0.07229,-0.01355 -0.700667,-0.0854 -0.858847,-0.190855 -0.112289,-0.07486 -0.178318,-0.205309 -0.286282,-0.286282 -0.02545,-0.01909 -0.06362,0 -0.09543,0 -0.06362,-0.03181 -0.140561,-0.04513 -0.190855,-0.09543 -0.09321,-0.09321 -0.562365,-0.710969 -0.667992,-0.858847 -0.06666,-0.09333 -0.119209,-0.196725 -0.190855,-0.286282 -0.584354,-0.584353 0.120707,0.160943 -0.286283,-0.38171 -0.149062,-0.19875 -0.349317,-0.359531 -0.477137,-0.572564 -0.161183,-0.268639 -0.233182,-0.58301 -0.381709,-0.858847 -0.09543,-0.127237 -0.190855,-0.254473 -0.286283,-0.38171 -0.03181,0 -0.07294,0.02249 -0.09543,0 -0.112463,-0.112462 -0.190855,-0.254473 -0.286283,-0.38171 -0.190854,-0.254473 -0.381709,-0.508946 -0.572564,-0.763419 -0.190855,-0.254473 -0.390151,-0.502829 -0.572565,-0.76342 -0.04079,-0.05827 -0.04513,-0.14056 -0.09543,-0.190855 -0.0811,-0.0811 -0.199204,-0.116216 -0.286283,-0.190854 -0.13662,-0.117104 -0.249066,-0.260121 -0.381709,-0.38171 -0.249258,-0.228487 -0.524322,-0.428894 -0.76342,-0.667992 -0.175671,-0.175672 -0.308087,-0.390512 -0.477137,-0.572565 -0.24488,-0.263717 -0.508946,-0.508946 -0.763419,-0.763419 -0.127237,-0.127237 -0.247222,-0.262165 -0.38171,-0.38171 -0.541733,-0.481541 -0.581306,-0.347108 -1.049702,-1.049702 -0.157817,-0.236726 -0.254473,-0.508946 -0.38171,-0.763419 -0.09543,-0.190855 -0.202227,-0.376436 -0.286282,-0.572565 -0.01253,-0.02924 0.01006,-0.06525 0,-0.09543 -0.02249,-0.06748 -0.07294,-0.123378 -0.09543,-0.190855 -0.01006,-0.03018 0.02249,-0.07293 0,-0.09543 -0.02249,-0.02249 -0.07293,0.02249 -0.09543,0 -0.02249,-0.02249 0.01006,-0.06525 0,-0.09543 -0.152329,-0.456988 -0.09543,0.152767 -0.09543,-0.572565 m 12.978151,2.671983 c -0.03181,0.127237 -0.09543,0.250558 -0.09543,0.38171 0,0.07113 0.07293,0.123378 0.09543,0.190855 0.02012,0.06035 0,0.127237 0,0.190855 0,0.127236 -0.02495,0.256944 0,0.38171 0.0088,0.04411 0.09543,0.05044 0.09543,0.09543 0,0.07113 -0.07294,0.123378 -0.09543,0.190855 -0.01006,0.03018 0,0.06362 0,0.09543 0,0.06362 -0.0063,0.127553 0,0.190855 0.02552,0.255181 0.07221,0.508019 0.09543,0.76342 0.0086,0.09503 0,0.190855 0,0.286282 0,0.190855 0.01899,0.382657 0,0.572565 -0.01305,0.130501 -0.07387,0.252341 -0.09543,0.381709 -0.251236,1.507417 -0.01103,0.143433 -0.09543,1.240557 -0.0503,0.653878 -0.105423,0.737956 -0.190855,1.335984 -0.04504,0.315256 0.0717,0.812406 0.09543,1.049702 0.01554,0.155422 -0.02209,0.322542 0,0.477137 0.04188,0.29319 0.159486,0.796109 0.286282,1.049702 0.01423,0.02845 0.07294,-0.02249 0.09543,0 0.02249,0.02249 0,0.06362 0,0.09543 0,0.159046 0,0.318092 0,0.477138 0,0.03181 0.01006,0.06525 0,0.09543 -0.270331,0.540662 0.03556,-0.142255 -0.09543,0.38171 0.05752,0.172718 -0.154586,0.177478 -0.190854,0.286282 -0.02012,0.06035 0.01543,0.129136 0,0.190855 -0.01725,0.069 -0.07112,0.12401 -0.09543,0.190855 -0.103127,0.283599 -0.201133,0.569341 -0.286282,0.858847 -0.0094,0.03197 -0.240185,0.707627 -0.190855,0.954274 0.01973,0.09864 0.07103,0.188696 0.09543,0.286282 0.0077,0.03086 -0.0077,0.06457 0,0.09543 0.0413,0.165181 0.2425,0.675854 0.286283,0.763419 0.114689,0.229379 0.300612,0.424699 0.381709,0.667992 0.01996,0.0599 0,0.304888 0,0.38171 0,0.127237 0,0.254473 0,0.38171 0,0.03181 0.01006,0.06525 0,0.09543 -0.02249,0.06748 -0.08373,0.120695 -0.09543,0.190855 -0.02092,0.125505 0,0.254473 0,0.38171 0,0.190855 0.01464,0.382272 0,0.572564 -0.01725,0.224263 -0.07305,0.444184 -0.09543,0.667992 -0.0095,0.09495 0,0.190855 0,0.286283 0,0.03181 -0.01006,0.06525 0,0.09543 0.05417,0.162507 0.143795,0.312431 0.190854,0.477137 0.08057,0.281983 0.142643,0.569572 0.190855,0.858847 0.01569,0.09413 0,0.190855 0,0.286283 0,0.03181 0.03181,0.09543 0,0.09543 -0.03181,0 0,-0.06362 0,-0.09543" />
  </g>
</svg>
