<?xml version="1.0" encoding="UTF-8" standalone="no"?>
<!-- Created with Inkscape (http://www.inkscape.org/) -->

<svg
   xmlns:dc="http://purl.org/dc/elements/1.1/"
   xmlns:cc="http://creativecommons.org/ns#"
   xmlns:rdf="http://www.w3.org/1999/02/22-rdf-syntax-ns#"
   xmlns:svg="http://www.w3.org/2000/svg"
   xmlns="http://www.w3.org/2000/svg"
   xmlns:sodipodi="http://sodipodi.sourceforge.net/DTD/sodipodi-0.dtd"
   xmlns:inkscape="http://www.inkscape.org/namespaces/inkscape"
   width="128"
   height="128"
   id="svg2"
   version="1.1"
   inkscape:version="0.48.1 r9760"
   sodipodi:docname="teaching.svg"
   inkscape:export-filename="/var/www/ctksound.dev/public/images/teaching.png"
   inkscape:export-xdpi="33.75"
   inkscape:export-ydpi="33.75">
  <defs
     id="defs4" />
  <sodipodi:namedview
     id="base"
     pagecolor="#ffffff"
     bordercolor="#666666"
     borderopacity="1.0"
     inkscape:pageopacity="0.0"
     inkscape:pageshadow="2"
     inkscape:zoom="0.4609375"
     inkscape:cx="132.0678"
     inkscape:cy="20.610169"
     inkscape:document-units="px"
     inkscape:current-layer="layer1"
     showgrid="false"
     inkscape:window-width="648"
     inkscape:window-height="683"
     inkscape:window-x="1920"
     inkscape:window-y="24"
     inkscape:window-maximized="0" />
  <metadata
     id="metadata7">
    <rdf:RDF>
      <cc:Work
         rdf:about="">
        <dc:format>image/svg+xml</dc:format>
        <dc:type
           rdf:resource="http://purl.org/dc/dcmitype/StillImage" />
        <dc:title></dc:title>
      </cc:Work>
    </rdf:RDF>
  </metadata>
  <g
     inkscape:label="Layer 1"
     inkscape:groupmode="layer"
     id="layer1"
     transform="translate(0,-924.36217)">
    <path
       id="path3773"
       transform="translate(0,924.36217)"
       style="fill:none;stroke:#000000;stroke-width:3;stroke-linecap:butt;stroke-linejoin:miter;stroke-opacity:1;stroke-miterlimit:4;stroke-dasharray:none"
       d="m 35.79661,69.966102 c -0.903955,-0.180791 -1.80255,-0.390821 -2.711864,-0.542373 -0.648303,-0.108051 -2.258873,0 -2.711865,0 -1.446327,0 -2.892655,0 -4.338983,0 -0.542373,0 -1.084745,0 -1.627118,0 -1.174134,0 -1.113376,-0.161705 -2.169492,0.542373 -0.212736,0.141824 -0.400549,0.329636 -0.542373,0.542373 -0.599059,0.898588 -0.542373,1.231832 -0.542373,2.169491 0,0.361582 0.0877,0.73396 0,1.084746 -0.09805,0.392191 -0.414534,0.70123 -0.542373,1.084746 -0.114342,0.343026 0.114343,0.741719 0,1.084745 -0.127838,0.383516 -0.414534,0.701231 -0.542372,1.084746 -0.05717,0.171514 0,0.361582 0,0.542373 0,0.361582 0,0.723164 0,1.084746 0,1.446327 0,2.892655 0,4.338983 0,4.338983 0,8.677966 0,13.016949 M 38.508475,68.881356 c 0.723163,0 1.456167,0.118887 2.169491,0 0.398761,-0.06646 0.70123,-0.414534 1.084746,-0.542373 0.306006,-0.102002 1.270721,0 1.627119,0 0.903954,0 1.807909,0 2.711864,0 0.245365,0 3.109695,0.07227 3.254237,0 0.228685,-0.114342 0.313689,-0.428031 0.542373,-0.542373 0.161704,-0.08085 0.380669,0.08085 0.542373,0 0.228684,-0.114342 0.313688,-0.42803 0.542373,-0.542373 0.323409,-0.161704 0.761337,0.161705 1.084746,0 0.228684,-0.114342 0.313688,-0.42803 0.542372,-0.542373 0.161705,-0.08085 0.380669,0.08085 0.542373,0 0.228685,-0.114342 0.313689,-0.42803 0.542373,-0.542372 0.323409,-0.161705 0.761337,0.161704 1.084746,0 0.457369,-0.228685 0.627377,-0.856062 1.084746,-1.084746 0.323408,-0.161705 0.741719,0.114342 1.084746,0 3.928632,-1.309544 -0.85511,0.156368 1.627118,-1.084746 0.323409,-0.161704 0.761337,0.161704 1.084746,0 0.224407,-0.112203 1.473857,-1.397227 1.627119,-1.627119 0.224243,-0.336365 0.318129,-0.74838 0.542372,-1.084745 0.141825,-0.212737 0.400549,-0.329637 0.542373,-0.542373 0.224244,-0.336366 0.31813,-0.748381 0.542373,-1.084746 0.141824,-0.212736 0.361582,-0.361582 0.542373,-0.542373 0.180791,-0.180791 0.313689,-0.428031 0.542373,-0.542373 0.323409,-0.161704 0.761337,0.161705 1.084746,0 0.228684,-0.114342 0.313688,-0.42803 0.542373,-0.542373 0.161704,-0.08085 0.361582,0 0.542373,0 0.361581,0 0.741719,0.114343 1.084745,0 0.242557,-0.08085 0.361582,-0.361582 0.542373,-0.542373 m -32,32.542373 c 2.398176,1.199088 1.59778,0.513035 2.711865,1.627119 0.180791,0.180791 0.400548,0.329637 0.542372,0.542373 0.448488,0.672731 0.636259,1.496761 1.084746,2.169491 0.141824,0.212737 0.361582,0.361582 0.542373,0.542373 0.361582,0.361582 0.723164,0.723164 1.084746,1.084746 0.180791,0.180791 0.49223,0.291661 0.542373,0.542373 0.141824,0.70912 0,1.446328 0,2.169491 0,0.361582 -0.134288,0.749026 0,1.084746 0.242091,0.60523 0.793229,1.04409 1.084746,1.62712 0.08085,0.1617 0,0.36158 0,0.54237 0,0.36158 -0.134289,0.74903 0,1.08475 0.242091,0.60523 0.793229,1.04408 1.084745,1.62712 0.08642,0.17284 0,2.22713 0,2.71186 0,2.16949 0,4.33898 0,6.50848 M 33.084746,52.067797 c -0.180791,0.723163 -0.542373,1.424071 -0.542373,2.169491 0,1.128613 0.760607,1.739448 1.084746,2.711865 0.114342,0.343026 -0.114343,0.741719 0,1.084745 0.127838,0.383516 0.414534,0.701231 0.542373,1.084746 0.114342,0.343027 -0.114343,0.741719 0,1.084746 0.127838,0.383515 0.414534,0.70123 0.542372,1.084746 0.05717,0.171513 -0.05717,0.370859 0,0.542372 0.127839,0.383516 0.392235,0.709399 0.542373,1.084746 0.212329,0.530821 0.330045,1.096298 0.542373,1.627119 0.150139,0.375347 0.414535,0.70123 0.542373,1.084746 0.05717,0.171513 -0.05717,0.370859 0,0.542373 0.127839,0.383515 0.414534,0.70123 0.542373,1.084745 0.162712,0.488136 -0.162712,1.138983 0,1.627119 0.127838,0.383515 0.414534,0.70123 0.542373,1.084746 0.114342,0.343026 0,0.723164 0,1.084745 0,1.084746 0,2.169492 0,3.254238 0,0.436629 0.113474,1.829069 0,2.169491 -0.127839,0.383516 -0.414535,0.70123 -0.542373,1.084746 -0.114342,0.343027 0.161704,0.761337 0,1.084746 -0.114342,0.228684 -0.428031,0.313688 -0.542373,0.542373 -0.161704,0.323408 0.161704,0.761337 0,1.084745 -0.114342,0.228685 -0.428031,0.313689 -0.542373,0.542373 -0.161704,0.323409 0.114342,0.741719 0,1.084746 -0.127838,0.383516 -0.414534,0.70123 -0.542373,1.084746 -0.113907,0.341721 0,2.840183 0,3.254237 0,1.493269 0.05717,-0.828228 -0.542373,2.169492 -0.141824,0.70912 0,1.446327 0,2.169491 0,0.180791 0.05717,0.37086 0,0.542373 -0.127838,0.383516 -0.361582,0.723164 -0.542372,1.084746 0.361582,1.084746 0.770623,2.154809 1.084745,3.254237 0.268596,0.940085 -0.252013,0.213666 -0.542373,1.084746 -0.114342,0.343027 0,0.723164 0,1.084746 0,0.723163 0,1.446327 0,2.169491 0,0.36158 0,0.72316 0,1.08475 0,0.18079 0.04385,0.36698 0,0.54237 -1.128613,4.51445 0.03744,-0.6547 -1.084745,2.71186 -0.114343,0.34303 0.161704,0.76134 0,1.08475 -0.114343,0.22868 -0.361582,0.36158 -0.542373,0.54237 -0.180791,0.18079 -0.361582,0.36158 -0.542373,0.54237 -0.903955,0.90396 -1.80791,1.80791 -2.711865,2.71187 -0.28554,0.28554 -1.482282,1.33745 -1.627118,1.62712 -0.08085,0.1617 0.08085,0.38067 0,0.54237 -0.114342,0.22869 -0.428031,0.31369 -0.542373,0.54237 -0.08085,0.16171 0.05717,0.37086 0,0.54238 -0.255677,0.76703 -0.723164,1.44632 -1.084746,2.16949 m 5.95218,-83.681247 c 5.983002,-0.291872 11.082246,4.079191 11.38948,9.763044 0.307234,5.683852 -4.293885,10.528134 -10.276887,10.820006 C 27.658041,51.634356 22.558797,47.263292 22.251563,41.57944 21.946308,35.932188 26.488282,31.106134 32.429729,30.764678 M 79.728814,99.79661 c 0,3.07345 0,6.14689 0,9.22034 m 2.711864,-10.847458 c 2.633014,0.528079 2.121736,0.494617 3.79661,2.169488 0.180791,0.18079 0.361582,0.36158 0.542373,0.54238 0.180791,0.18079 0.428031,0.31368 0.542373,0.54237 0.08085,0.1617 -0.08085,0.38067 0,0.54237 0.768,1.536 0.316746,-0.45125 1.084746,1.08475 0.161704,0.32341 -0.161705,0.76133 0,1.08474 2.557926,5.11586 0.101616,-0.11876 1.627118,2.16949 1.313431,1.97015 -0.158826,0.38355 1.084746,1.62712 M 79.728814,75.932203 c 0,2.892656 0,5.785311 0,8.677966 0,0.214407 -0.11582,2.480226 0,2.711865 0.114342,0.228684 0.42803,0.313688 0.542372,0.542373 0.09454,0.189085 0,2.856092 0,3.254237 0,1.988701 0,3.977401 0,5.966102 -0.438452,3.085554 -2.270628,0.05057 -3.254237,0.542373 -0.228684,0.114342 -0.313688,0.42803 -0.542373,0.542373 -0.161704,0.08085 -0.361582,0 -0.542373,0 -0.180791,0 -0.361582,0 -0.542372,0 -0.180791,0 -0.542373,0.18079 -0.542373,0 0,-0.180791 0.704077,-0.08085 0.542373,0 -0.511355,0.255677 -1.136881,0.248229 -1.627119,0.542372 -0.438483,0.26309 -0.723164,0.723164 -1.084746,1.084746 -0.542373,0.54237 -1.1669,1.01349 -1.627119,1.62712 -0.39111,0.52148 -0.677537,1.11811 -1.084745,1.62712 -0.319441,0.3993 -0.765306,0.68544 -1.084746,1.08474 -0.929378,1.16173 -1.511968,2.48157 -2.169492,3.79661 m -5.966101,-65.084742 0.542373,32 c 0,-0.180791 -0.08085,-0.380669 0,-0.542373 0.114342,-0.228685 0.361582,-0.361582 0.542372,-0.542373 0.180791,-0.180791 0.313689,-0.428031 0.542373,-0.542373 0.323409,-0.161704 0.761337,0.161704 1.084746,0 0.228685,-0.114342 0.313689,-0.428031 0.542373,-0.542373 13.853311,5.376855 20.100084,1.888702 30.372881,3.254237 2.839902,0.946634 -1.436252,0.542374 3.796611,0.542373 0.18079,-0.180791 0.42803,-0.313688 0.542372,-0.542373 -3.002681,-10.706072 0.666362,-22.919256 -2.169491,-33.627118 4.645857,2.385181 5.086527,4.588936 0,0 -0.675624,-0.600555 -1.463621,-1.062423 -2.169492,-1.627119 -0.19965,-0.15972 -0.329636,-0.400549 -0.542373,-0.542373 -0.336365,-0.224243 -0.70123,-0.414534 -1.084745,-0.542373 -7.534762,-1.939064 -22.197156,3.091041 -29.288136,2.711865 -0.903955,0.180791 -1.807909,0.361582 -2.711864,0.542373 z" />
  </g>
</svg>
